<?xml version="1.0" encoding="utf-8"?>
<!-- Generator: Adobe Illustrator 15.0.0, SVG Export Plug-In . SVG Version: 6.00 Build 0)  -->
<!DOCTYPE svg PUBLIC "-//W3C//DTD SVG 1.1//EN" "http://www.w3.org/Graphics/SVG/1.1/DTD/svg11.dtd">
<svg version="1.1" id="图层_2" xmlns="http://www.w3.org/2000/svg" xmlns:xlink="http://www.w3.org/1999/xlink" x="0px" y="0px"
	 width="16px" height="16px" viewBox="0 0 16 16" enable-background="new 0 0 16 16" xml:space="preserve">
<path fill="#646464" d="M7.958,0.084C3.564,0.084,0,3.647,0,8.042C0,12.438,3.564,16,7.958,16c4.396,0,7.958-3.563,7.958-7.958
	C15.916,3.647,12.354,0.084,7.958,0.084z M7.958,14.011c-3.295,0-5.968-2.673-5.968-5.969s2.673-5.968,5.968-5.968
	c3.296,0,5.969,2.672,5.969,5.968S11.254,14.011,7.958,14.011z M10.941,7.047H8.953v-1.99c0-0.55-0.446-0.995-0.995-0.995
	S6.963,4.507,6.963,5.057v2.984c0,0.55,0.446,0.994,0.995,0.994h2.983c0.552,0,0.996-0.444,0.996-0.994S11.493,7.047,10.941,7.047z"
	/>
</svg>
